<?xml version="1.0" standalone="no"?>
<!DOCTYPE svg PUBLIC "-//W3C//DTD SVG 20010904//EN"
 "http://www.w3.org/TR/2001/REC-SVG-20010904/DTD/svg10.dtd">
<svg version="1.0" xmlns="http://www.w3.org/2000/svg"
 width="736.000000pt" height="736.000000pt" viewBox="0 0 736.000000 736.000000"
 preserveAspectRatio="xMidYMid meet">
<metadata>
Created by potrace 1.14, written by Peter Selinger 2001-2017
</metadata>
<g transform="translate(0.000000,736.000000) scale(0.100000,-0.100000)"
fill="#000000" stroke="none">
<path d="M3487 7234 c-1 -1 -45 -5 -97 -8 -173 -10 -252 -20 -271 -32 -8 -4
-9 -3 -5 4 5 9 0 9 -21 1 -15 -6 -28 -10 -28 -8 0 1 -93 -11 -125 -17 -8 -2
-28 -5 -45 -8 -16 -3 -61 -12 -100 -21 -38 -9 -81 -18 -95 -21 -54 -11 -287
-81 -355 -107 -22 -8 -49 -18 -60 -23 -11 -4 -22 -8 -25 -9 -172 -60 -529
-256 -663 -365 -6 -5 -64 -51 -127 -102 -288 -230 -608 -611 -710 -846 -5 -12
-19 -42 -30 -67 -25 -56 -78 -198 -84 -228 -3 -12 -12 -47 -20 -77 -57 -210
-58 -484 -1 -558 46 -60 95 -91 151 -96 19 -2 37 -6 40 -8 7 -8 90 9 116 23
39 21 48 37 53 91 10 121 17 168 40 274 101 479 415 920 895 1255 47 32 90 62
95 67 6 4 28 18 50 31 202 119 384 202 600 271 55 17 107 33 115 35 8 2 33 8
55 13 39 11 65 16 123 27 15 3 38 8 50 11 13 2 43 7 65 10 23 3 53 8 67 10
171 33 660 38 800 9 14 -3 41 -7 60 -10 48 -5 282 -68 353 -94 91 -34 323
-149 371 -184 217 -158 293 -221 385 -320 20 -22 52 -56 71 -77 19 -20 42 -46
50 -56 8 -11 26 -33 40 -50 14 -17 34 -43 45 -58 11 -16 37 -50 58 -77 20 -27
37 -51 37 -53 0 -3 20 -34 45 -69 25 -36 45 -70 45 -76 0 -6 5 -11 10 -11 6 0
10 -6 10 -13 0 -7 11 -28 23 -47 32 -48 140 -263 178 -355 45 -110 63 -160
103 -283 25 -79 48 -153 51 -165 33 -141 74 -337 78 -372 3 -25 8 -49 10 -53
3 -4 8 -36 12 -72 3 -36 8 -78 11 -95 2 -16 7 -61 10 -100 2 -38 8 -101 11
-140 8 -94 8 -598 0 -705 -3 -47 -9 -121 -12 -165 -6 -93 -12 -145 -31 -275
-3 -19 -7 -51 -10 -70 -2 -19 -7 -43 -10 -53 -3 -10 -7 -32 -10 -50 -2 -18 -6
-43 -9 -57 -11 -51 -16 -76 -20 -100 -2 -14 -8 -40 -14 -57 -5 -18 -8 -33 -5
-33 3 0 0 -9 -6 -20 -6 -11 -13 -33 -15 -48 -5 -31 -61 -227 -74 -257 -5 -11
-28 -72 -51 -135 -40 -106 -70 -176 -138 -320 -14 -30 -29 -57 -32 -60 -3 -3
-17 -29 -30 -58 -14 -28 -28 -52 -32 -52 -5 0 -8 -4 -8 -9 0 -20 -193 -311
-212 -319 -4 -2 -8 -10 -8 -18 0 -9 -4 -12 -10 -9 -5 3 -10 2 -10 -2 0 -13
-76 -99 -160 -181 -202 -199 -498 -367 -745 -422 -69 -16 -84 -19 -130 -26
-22 -3 -53 -8 -70 -10 -118 -19 -391 -18 -474 0 -13 3 -41 6 -63 8 -22 1 -42
6 -44 10 -3 5 -9 6 -12 4 -4 -2 -34 2 -67 10 -33 8 -67 16 -75 18 -78 19 -292
108 -324 135 -10 9 -21 16 -25 15 -31 -3 -247 163 -362 278 -100 101 -208 236
-270 338 -18 30 -35 57 -38 60 -8 7 -26 39 -102 185 -78 149 -197 437 -214
515 -2 8 -4 15 -5 15 -1 0 -3 7 -5 15 -3 8 -18 62 -34 119 -17 58 -33 118 -35
135 -3 17 -10 46 -15 64 -5 18 -10 35 -10 37 0 3 -2 18 -5 33 -3 15 -8 41 -11
57 -3 17 -7 39 -9 50 -2 11 -7 40 -11 65 -3 25 -9 59 -11 75 -3 17 -7 50 -10
75 -3 25 -7 59 -9 75 -3 29 -14 160 -20 260 -5 71 -5 464 0 565 4 83 13 197
21 273 2 20 6 54 8 75 2 20 7 53 10 72 4 19 8 51 11 70 3 29 20 122 39 215 38
189 154 522 227 651 11 21 33 61 47 88 15 28 30 56 34 61 5 6 35 48 68 95 32
47 69 97 80 112 43 55 177 186 250 245 85 68 255 175 264 166 3 -4 6 -1 6 5 0
7 5 12 12 12 6 0 34 11 62 24 44 21 114 45 251 85 35 11 75 19 125 27 19 2 46
7 60 9 42 7 162 17 230 19 103 3 122 23 122 130 0 115 -127 254 -257 282 -77
17 -306 6 -437 -21 -16 -3 -38 -7 -50 -9 -68 -12 -222 -58 -313 -93 -73 -29
-90 -34 -94 -33 -2 1 -7 -2 -10 -7 -3 -5 -26 -18 -51 -29 -60 -25 -267 -140
-280 -155 -3 -3 -23 -16 -45 -29 -22 -13 -44 -28 -50 -32 -5 -5 -50 -38 -100
-75 -163 -120 -347 -292 -440 -408 -22 -27 -42 -52 -45 -55 -5 -5 -20 -27 -81
-115 -127 -184 -293 -526 -333 -685 -3 -8 -9 -27 -15 -43 -19 -49 -68 -241
-76 -297 -2 -14 -4 -26 -6 -27 -3 -5 -20 -92 -25 -130 -1 -12 -5 -34 -8 -50
-5 -25 -13 -90 -21 -168 -30 -276 -22 -808 15 -1085 5 -41 12 -91 14 -110 6
-49 37 -223 51 -290 3 -14 7 -34 9 -45 2 -11 12 -51 21 -90 9 -38 18 -74 19
-80 1 -5 5 -19 8 -30 4 -11 21 -67 38 -125 53 -173 181 -489 202 -498 5 -2 8
-11 8 -21 0 -9 4 -21 9 -26 4 -6 22 -35 38 -65 46 -85 52 -95 146 -236 48 -72
96 -139 107 -149 11 -10 20 -22 20 -27 0 -5 10 -19 23 -32 12 -12 43 -47 69
-77 114 -133 312 -309 457 -406 47 -32 88 -61 91 -64 3 -3 12 -8 20 -12 8 -3
38 -20 65 -37 28 -16 57 -33 65 -36 8 -4 56 -26 105 -49 50 -24 101 -46 115
-50 14 -4 30 -11 35 -15 9 -6 82 -33 95 -35 3 0 10 -3 15 -6 6 -4 24 -10 40
-14 17 -5 35 -9 40 -11 131 -36 239 -63 285 -70 19 -3 46 -7 59 -9 13 -2 45
-7 70 -11 25 -4 53 -8 62 -9 112 -20 583 -27 734 -11 143 15 192 22 290 41 39
8 85 17 104 20 19 3 38 8 43 11 5 3 21 8 36 10 80 15 304 96 439 160 346 162
654 407 898 714 33 41 62 77 65 80 12 11 107 147 120 170 7 14 16 27 20 30 20
14 241 421 255 470 3 9 17 44 30 75 7 17 25 64 40 105 15 41 33 91 40 110 21
57 88 290 100 348 2 9 10 47 19 83 21 90 60 328 71 429 1 14 6 54 10 89 31
262 35 699 11 1016 -8 92 -29 268 -42 339 -3 17 -7 45 -10 61 -2 17 -6 41 -9
55 -2 14 -12 61 -21 105 -8 44 -19 94 -24 110 -5 17 -11 41 -14 55 -9 51 -86
299 -124 400 -113 304 -229 522 -442 834 -18 26 -73 99 -80 106 -3 3 -34 41
-70 85 -93 115 -220 249 -332 350 -60 54 -70 63 -138 115 -25 19 -47 38 -50
41 -10 12 -237 159 -285 185 -172 94 -336 165 -490 214 -55 18 -107 34 -115
37 -8 3 -24 8 -34 10 -10 2 -53 12 -95 22 -42 10 -105 24 -141 30 -36 6 -78
13 -95 17 -16 3 -50 7 -75 10 -25 3 -58 7 -75 9 -78 13 -568 28 -578 19z"/>
</g>
</svg>
